<?xml version="1.0" encoding="UTF-8" standalone="no"?>
<!-- Created with Inkscape (http://www.inkscape.org/) -->

<svg
   width="512"
   height="512"
   viewBox="0 0 512 512"
   version="1.1"
   id="svg1"
   inkscape:export-filename="logo.png"
   inkscape:export-xdpi="96"
   inkscape:export-ydpi="96"
   inkscape:version="1.4.3 (0d15f75042, 2025-12-25)"
   sodipodi:docname="logo.svg"
   xmlns:inkscape="http://www.inkscape.org/namespaces/inkscape"
   xmlns:sodipodi="http://sodipodi.sourceforge.net/DTD/sodipodi-0.dtd"
   xmlns:xlink="http://www.w3.org/1999/xlink"
   xmlns="http://www.w3.org/2000/svg"
   xmlns:svg="http://www.w3.org/2000/svg">
  <sodipodi:namedview
     id="namedview1"
     pagecolor="#505050"
     bordercolor="#eeeeee"
     borderopacity="1"
     inkscape:showpageshadow="0"
     inkscape:pageopacity="0"
     inkscape:pagecheckerboard="0"
     inkscape:deskcolor="#505050"
     inkscape:document-units="px"
     inkscape:zoom="0.85058594"
     inkscape:cx="133.43743"
     inkscape:cy="185.75431"
     inkscape:window-width="1900"
     inkscape:window-height="1003"
     inkscape:window-x="0"
     inkscape:window-y="0"
     inkscape:window-maximized="1"
     inkscape:current-layer="layer1" />
  <defs
     id="defs1">
    <linearGradient
       id="linearGradient2"
       inkscape:collect="always">
      <stop
         style="stop-color:#00ffff;stop-opacity:1;"
         offset="0"
         id="stop2" />
      <stop
         style="stop-color:#9c01ff;stop-opacity:1;"
         offset="1"
         id="stop3" />
    </linearGradient>
    <linearGradient
       inkscape:collect="always"
       xlink:href="#linearGradient2"
       id="linearGradient3"
       x1="29.965424"
       y1="135.81526"
       x2="482.03467"
       y2="376.18475"
       gradientUnits="userSpaceOnUse"
       gradientTransform="matrix(0.9765625,0,0,0.9765625,6,6)" />
  </defs>
  <g
     inkscape:label="Layer 1"
     inkscape:groupmode="layer"
     id="layer1">
    <path
       id="path1"
       style="fill:url(#linearGradient3);fill-rule:evenodd;stroke-width:1.05637"
       d="M 256,6 A 250,250 0 0 0 6,256 250,250 0 0 0 256,506 250,250 0 0 0 506,256 250,250 0 0 0 256,6 Z m 0,30.273437 A 219.72656,219.72656 0 0 1 475.72656,256 219.72656,219.72656 0 0 1 256,475.72656 219.72656,219.72656 0 0 1 36.273437,256 219.72656,219.72656 0 0 1 256,36.273437 Z" />
  </g>
</svg>
